<?xml version="1.0" ?><svg data-name="Layer 51" id="Layer_51" viewBox="0 0 50 50" xmlns="http://www.w3.org/2000/svg"><defs><style>.cls-1{fill:white;}</style></defs><title/><path class="cls-1" d="M43.5,37.7L38,31.3V19A13.2,13.2,0,0,0,27,6.2V4a2,2,0,0,0-4,0V6.2A13.2,13.2,0,0,0,12,19V31.3L6.5,37.7A2,2,0,0,0,8,41h8.2A9.1,9.1,0,0,0,25,48a9.1,9.1,0,0,0,8.8-7H42A2,2,0,0,0,43.5,37.7ZM25,44a5.1,5.1,0,0,1-4.5-3h9.1A5.1,5.1,0,0,1,25,44ZM12.3,37l3.2-3.7A2,2,0,0,0,16,32V19a9,9,0,0,1,18,0V32a2,2,0,0,0,.5,1.3L37.7,37H12.3Z"/></svg>