<?xml version="1.0" ?>
<!DOCTYPE svg  PUBLIC '-//W3C//DTD SVG 1.1//EN'  'http://www.w3.org/Graphics/SVG/1.1/DTD/svg11.dtd'>
<svg class="icon" height="18px" version="1.1" viewBox="0 0 1024 1024" width="18px" xmlns="http://www.w3.org/2000/svg">
<path d="M512 992.7C247 992.7 31.3 777 31.3 512S247 31.3 512 31.3 992.7 247 992.7 512 777 992.7 512 992.7z m0-919.6C270 73.1 73.1 270 73.1 512 73.1 754 270 950.9 512 950.9c242 0 438.9-196.9 438.9-438.9C950.9 270 754 73.1 512 73.1z" fill="white"/>
<path d="M512 783.7c-11.5 0-20.9-9.3-20.9-20.9V428.4c0-11.5 9.4-20.9 20.9-20.9 11.6 0 20.9 9.4 20.9 20.9v334.4c0 11.5-9.3 20.9-20.9 20.9zM512 323.9c-11.5 0-20.9-9.4-20.9-20.9v-41.8c0-11.5 9.4-20.9 20.9-20.9 11.6 0 20.9 9.4 20.9 20.9V303c0 11.6-9.3 20.9-20.9 20.9z" fill="white"/>
</svg>